<svg width="24" height="24" viewBox="0 0 24 24" fill="none" xmlns="http://www.w3.org/2000/svg">
<g clip-path="url(#clip0_8_506)">
<path d="M12 15C13.1046 15 14 14.1046 14 13C14 11.8954 13.1046 11 12 11C10.8954 11 10 11.8954 10 13C10 14.1046 10.8954 15 12 15Z" stroke="black" stroke-width="2" stroke-linecap="round" stroke-linejoin="round"/>
<path d="M13.45 11.55L15.5 9.5" stroke="black" stroke-width="2" stroke-linecap="round" stroke-linejoin="round"/>
<path d="M6.4 20C4.93815 18.8381 3.87391 17.2503 3.35478 15.4565C2.83564 13.6627 2.88732 11.7519 3.50265 9.98884C4.11797 8.22576 5.26647 6.69774 6.78899 5.61653C8.3115 4.53532 10.1326 3.95447 12 3.95447C13.8674 3.95447 15.6885 4.53532 17.211 5.61653C18.7335 6.69774 19.882 8.22576 20.4974 9.98884C21.1127 11.7519 21.1644 13.6627 20.6452 15.4565C20.1261 17.2503 19.0619 18.8381 17.6 20H6.4Z" stroke="black" stroke-width="2" stroke-linecap="round" stroke-linejoin="round"/>
</g>
<defs>
<clipPath id="clip0_8_506">
<rect width="24" height="24" fill="white"/>
</clipPath>
</defs>
</svg>
